<svg xmlns="http://www.w3.org/2000/svg" viewBox="0 0 300 200" role="img"><defs><linearGradient id="cl-body" x1="0.15" y1="0" x2="0.8" y2="1"><stop offset="0%" stop-color="#F2F2F4"/><stop offset="22%" stop-color="#CBCBD1"/><stop offset="46%" stop-color="#9FA0A7"/><stop offset="64%" stop-color="#DEDEE2"/><stop offset="84%" stop-color="#8C8D95"/><stop offset="100%" stop-color="#B4B5BC"/></linearGradient><linearGradient id="cl-rim" x1="0" y1="0" x2="0.9" y2="1"><stop offset="0%" stop-color="#FFFFFF" stop-opacity="0.95"/><stop offset="50%" stop-color="#FFFFFF" stop-opacity="0.25"/><stop offset="100%" stop-color="#5F6067" stop-opacity="0.55"/></linearGradient><radialGradient id="cl-bore" cx="0.36" cy="0.28" r="0.9"><stop offset="0%" stop-color="#8B8C93"/><stop offset="55%" stop-color="#6A6B72"/><stop offset="100%" stop-color="#A9AAB1"/></radialGradient><linearGradient id="cl-sheen" x1="0" y1="0" x2="0.7" y2="1"><stop offset="0%" stop-color="#FFFFFF" stop-opacity="0.85"/><stop offset="60%" stop-color="#FFFFFF" stop-opacity="0.06"/><stop offset="100%" stop-color="#FFFFFF" stop-opacity="0"/></linearGradient><filter id="cl-drop" x="-30%" y="-30%" width="160%" height="160%"><feDropShadow dx="0" dy="7" stdDeviation="6" flood-color="#111111" flood-opacity="0.14"/></filter><clipPath id="cl-clip"><path d="M 164.4,87.6 Q 111.5,77.8 65.0,53.4 L 47.0,94.6 Q 90.1,126.8 139.6,144.4 Z"/><path d="M 166.3,143.5 Q 215.2,120.1 257.6,84.4 L 238.4,47.6 Q 191.3,74.3 137.7,88.5 Z"/><path d="M 132.1,139.7 Q 170.8,156.5 201.9,182.5 L 226.1,153.5 Q 202.9,118.3 171.9,92.3 Z"/><circle cx="152" cy="116" r="36"/><circle cx="56" cy="74" r="25"/><circle cx="248" cy="66" r="23"/><circle cx="214" cy="168" r="21"/></clipPath></defs><g filter="url(#cl-drop)"><path d="M 164.4,87.6 Q 111.5,77.8 65.0,53.4 L 47.0,94.6 Q 90.1,126.8 139.6,144.4 Z" fill="url(#cl-body)"/><path d="M 166.3,143.5 Q 215.2,120.1 257.6,84.4 L 238.4,47.6 Q 191.3,74.3 137.7,88.5 Z" fill="url(#cl-body)"/><path d="M 132.1,139.7 Q 170.8,156.5 201.9,182.5 L 226.1,153.5 Q 202.9,118.3 171.9,92.3 Z" fill="url(#cl-body)"/><circle cx="152" cy="116" r="36" fill="url(#cl-body)"/><circle cx="56" cy="74" r="25" fill="url(#cl-body)"/><circle cx="248" cy="66" r="23" fill="url(#cl-body)"/><circle cx="214" cy="168" r="21" fill="url(#cl-body)"/><g clip-path="url(#cl-clip)"><path d="M-20 -20 L 340 -20 L 200 220 L -20 120 Z" fill="url(#cl-sheen)" opacity="0.6"/><path d="M148.7 86.2 L144.5 95.7" stroke="#6E6F76" stroke-opacity="0.5" stroke-width="2.4" fill="none"/><ellipse cx="138.3" cy="110.0" rx="7" ry="4.5" fill="#74757C" opacity="0.32"/><path d="M135.0 80.2 L118.3 118.3" stroke="#6E6F76" stroke-opacity="0.5" stroke-width="2.4" fill="none"/><ellipse cx="124.6" cy="104.0" rx="7" ry="4.5" fill="#74757C" opacity="0.32"/><path d="M121.3 74.2 L117.1 83.7" stroke="#6E6F76" stroke-opacity="0.5" stroke-width="2.4" fill="none"/><ellipse cx="110.9" cy="98.0" rx="7" ry="4.5" fill="#74757C" opacity="0.32"/><path d="M107.6 68.2 L90.9 106.3" stroke="#6E6F76" stroke-opacity="0.5" stroke-width="2.4" fill="none"/><ellipse cx="97.1" cy="92.0" rx="7" ry="4.5" fill="#74757C" opacity="0.32"/><path d="M93.8 62.2 L89.7 71.7" stroke="#6E6F76" stroke-opacity="0.5" stroke-width="2.4" fill="none"/><ellipse cx="83.4" cy="86.0" rx="7" ry="4.5" fill="#74757C" opacity="0.32"/><path d="M80.1 56.2 L63.5 94.3" stroke="#6E6F76" stroke-opacity="0.5" stroke-width="2.4" fill="none"/><ellipse cx="69.7" cy="80.0" rx="7" ry="4.5" fill="#74757C" opacity="0.32"/><path d="M177.7 131.9 L172.9 122.7" stroke="#6E6F76" stroke-opacity="0.5" stroke-width="2.4" fill="none"/><ellipse cx="165.7" cy="108.9" rx="7" ry="4.5" fill="#74757C" opacity="0.4"/><path d="M191.4 124.8 L172.2 87.9" stroke="#6E6F76" stroke-opacity="0.5" stroke-width="2.4" fill="none"/><ellipse cx="179.4" cy="101.7" rx="7" ry="4.5" fill="#74757C" opacity="0.4"/><path d="M205.2 117.6 L200.3 108.4" stroke="#6E6F76" stroke-opacity="0.5" stroke-width="2.4" fill="none"/><ellipse cx="193.1" cy="94.6" rx="7" ry="4.5" fill="#74757C" opacity="0.4"/><path d="M218.9 110.5 L199.7 73.6" stroke="#6E6F76" stroke-opacity="0.5" stroke-width="2.4" fill="none"/><ellipse cx="206.9" cy="87.4" rx="7" ry="4.5" fill="#74757C" opacity="0.4"/><path d="M232.6 103.3 L227.8 94.1" stroke="#6E6F76" stroke-opacity="0.5" stroke-width="2.4" fill="none"/><ellipse cx="220.6" cy="80.3" rx="7" ry="4.5" fill="#74757C" opacity="0.4"/><path d="M246.3 96.2 L227.1 59.3" stroke="#6E6F76" stroke-opacity="0.5" stroke-width="2.4" fill="none"/><ellipse cx="234.3" cy="73.1" rx="7" ry="4.5" fill="#74757C" opacity="0.4"/><path d="M144.1 143.3 L150.8 135.4" stroke="#6E6F76" stroke-opacity="0.5" stroke-width="2.4" fill="none"/><ellipse cx="160.9" cy="123.4" rx="7" ry="4.5" fill="#74757C" opacity="0.32"/><path d="M153.0 150.8 L179.7 118.9" stroke="#6E6F76" stroke-opacity="0.5" stroke-width="2.4" fill="none"/><ellipse cx="169.7" cy="130.9" rx="7" ry="4.5" fill="#74757C" opacity="0.32"/><path d="M161.9 158.2 L168.5 150.2" stroke="#6E6F76" stroke-opacity="0.5" stroke-width="2.4" fill="none"/><ellipse cx="178.6" cy="138.3" rx="7" ry="4.5" fill="#74757C" opacity="0.32"/><path d="M170.7 165.6 L197.5 133.8" stroke="#6E6F76" stroke-opacity="0.5" stroke-width="2.4" fill="none"/><ellipse cx="187.4" cy="145.7" rx="7" ry="4.5" fill="#74757C" opacity="0.32"/><path d="M179.6 173.1 L186.3 165.1" stroke="#6E6F76" stroke-opacity="0.5" stroke-width="2.4" fill="none"/><ellipse cx="196.3" cy="153.1" rx="7" ry="4.5" fill="#74757C" opacity="0.32"/><path d="M188.4 180.5 L215.2 148.6" stroke="#6E6F76" stroke-opacity="0.5" stroke-width="2.4" fill="none"/><ellipse cx="205.1" cy="160.6" rx="7" ry="4.5" fill="#74757C" opacity="0.32"/><circle cx="152" cy="116" r="26.6" fill="none" stroke="#FFFFFF" stroke-opacity="0.4" stroke-width="1.1"/><circle cx="56" cy="74" r="18.5" fill="none" stroke="#FFFFFF" stroke-opacity="0.4" stroke-width="1.1"/><circle cx="248" cy="66" r="17.0" fill="none" stroke="#FFFFFF" stroke-opacity="0.4" stroke-width="1.1"/><circle cx="214" cy="168" r="15.5" fill="none" stroke="#FFFFFF" stroke-opacity="0.4" stroke-width="1.1"/></g><path d="M 164.4,87.6 Q 111.5,77.8 65.0,53.4 L 47.0,94.6 Q 90.1,126.8 139.6,144.4 Z" fill="none" stroke="url(#cl-rim)" stroke-width="1"/><path d="M 166.3,143.5 Q 215.2,120.1 257.6,84.4 L 238.4,47.6 Q 191.3,74.3 137.7,88.5 Z" fill="none" stroke="url(#cl-rim)" stroke-width="1"/><path d="M 132.1,139.7 Q 170.8,156.5 201.9,182.5 L 226.1,153.5 Q 202.9,118.3 171.9,92.3 Z" fill="none" stroke="url(#cl-rim)" stroke-width="1"/><circle cx="152" cy="116" r="36" fill="none" stroke="url(#cl-rim)" stroke-width="1"/><circle cx="56" cy="74" r="25" fill="none" stroke="url(#cl-rim)" stroke-width="1"/><circle cx="248" cy="66" r="23" fill="none" stroke="url(#cl-rim)" stroke-width="1"/><circle cx="214" cy="168" r="21" fill="none" stroke="url(#cl-rim)" stroke-width="1"/><circle cx="152" cy="116" r="12" fill="url(#cl-bore)"/><path d="M140 116 a12 12 0 0 1 24 0" fill="none" stroke="#5C5D64" stroke-opacity="0.55" stroke-width="1.1"/><path d="M164 116 a12 12 0 0 1 -24 0" fill="none" stroke="#FFFFFF" stroke-opacity="0.7" stroke-width="1.1"/><circle cx="56" cy="74" r="8.5" fill="url(#cl-bore)"/><path d="M47.5 74 a8.5 8.5 0 0 1 17 0" fill="none" stroke="#5C5D64" stroke-opacity="0.55" stroke-width="1.1"/><path d="M64.5 74 a8.5 8.5 0 0 1 -17 0" fill="none" stroke="#FFFFFF" stroke-opacity="0.7" stroke-width="1.1"/><circle cx="248" cy="66" r="8" fill="url(#cl-bore)"/><path d="M240 66 a8 8 0 0 1 16 0" fill="none" stroke="#5C5D64" stroke-opacity="0.55" stroke-width="1.1"/><path d="M256 66 a8 8 0 0 1 -16 0" fill="none" stroke="#FFFFFF" stroke-opacity="0.7" stroke-width="1.1"/><circle cx="214" cy="168" r="7" fill="url(#cl-bore)"/><path d="M207 168 a7 7 0 0 1 14 0" fill="none" stroke="#5C5D64" stroke-opacity="0.55" stroke-width="1.1"/><path d="M221 168 a7 7 0 0 1 -14 0" fill="none" stroke="#FFFFFF" stroke-opacity="0.7" stroke-width="1.1"/></g></svg>